<svg width="259" height="115" viewBox="0 0 259 115" fill="none" xmlns="http://www.w3.org/2000/svg">
<path d="M46.5597 110.06C46.6877 109.24 49.4757 105.34 62.6316 103.932C67.8956 103.368 75.0235 105.088 83.9994 109.092C80.2715 111.716 75.6235 113.492 70.0635 114.424C55.5756 116.852 47.4557 110.856 46.6317 110.124L46.5597 110.06ZM29.1679 82.7121C29.2078 82.4201 36.5278 79.7721 49.7077 86.3361C54.4837 88.7121 59.3756 93.068 64.3876 99.4C57.8516 100.32 51.9877 99.868 46.7957 98.06C35.8678 94.256 29.1079 83.1561 29.1679 82.7121ZM20.0479 54.3843C20.4399 54.1603 33.2838 56.2643 40.9078 64.9443C44.5317 69.0762 47.1477 74.3322 48.7477 80.7201C40.9878 78.4602 35.1078 75.5682 31.1078 72.0362C20.0799 62.3003 19.7999 54.5283 20.0559 54.3843H20.0479ZM26.1679 32.1285C26.5679 31.9725 36.8878 37.1205 42.9717 46.0484C45.8637 50.3044 47.2757 55.5883 47.1997 61.9163C40.3278 57.2763 35.7598 53.6643 33.4758 51.0764C25.1559 41.6484 25.9159 32.2285 26.1719 32.1285H26.1679ZM43.5717 11.0007C44.8237 11.2447 51.1277 19.5606 52.0117 29.8285C52.4317 34.7085 51.5397 39.5725 49.3317 44.4124C44.5157 37.5445 41.7718 31.2245 41.1038 25.4486C39.7598 13.8767 43.2997 10.9487 43.5677 11.0007H43.5717Z" fill="url(#paint0_linear_385_1798)"/>
<path d="M212.084 110.06C211.956 109.24 209.168 105.34 196.012 103.932C190.748 103.368 183.62 105.088 174.644 109.092C178.372 111.716 183.02 113.492 188.58 114.424C203.068 116.852 211.188 110.856 212.012 110.124L212.084 110.06ZM229.476 82.7121C229.436 82.4201 222.116 79.7721 208.936 86.3361C204.16 88.7121 199.268 93.068 194.256 99.4C200.792 100.32 206.656 99.868 211.848 98.06C222.776 94.256 229.536 83.1561 229.476 82.7121ZM238.596 54.3843C238.204 54.1603 225.36 56.2643 217.736 64.9443C214.112 69.0762 211.496 74.3322 209.896 80.7201C217.656 78.4602 223.536 75.5682 227.536 72.0362C238.564 62.3003 238.844 54.5283 238.588 54.3843H238.596ZM232.476 32.1285C232.076 31.9725 221.756 37.1205 215.672 46.0484C212.78 50.3044 211.368 55.5883 211.444 61.9163C218.316 57.2763 222.884 53.6643 225.168 51.0764C233.488 41.6484 232.728 32.2285 232.472 32.1285H232.476ZM215.072 11.0007C213.82 11.2447 207.516 19.5606 206.632 29.8285C206.212 34.7085 207.104 39.5725 209.312 44.4124C214.128 37.5445 216.872 31.2245 217.54 25.4486C218.884 13.8767 215.344 10.9487 215.076 11.0007H215.072Z" fill="url(#paint1_linear_385_1798)"/>
<rect x="74" width="110" height="110" rx="55" fill="#FFD2C8"/>
<rect x="74.5" y="0.5" width="109" height="109" rx="54.5" stroke="#CA1460" stroke-opacity="0.5"/>
<path d="M136.312 43.64C135.901 41.9227 135.155 40.6347 134.072 39.776C132.989 38.9173 131.477 38.488 129.536 38.488C126.587 38.488 124.384 39.6267 122.928 41.904C121.472 44.144 120.707 47.8773 120.632 53.104C121.603 51.4613 123.021 50.192 124.888 49.296C126.755 48.4 128.771 47.952 130.936 47.952C133.4 47.952 135.565 48.4933 137.432 49.576C139.336 50.6213 140.811 52.152 141.856 54.168C142.939 56.184 143.48 58.592 143.48 61.392C143.48 64.0053 142.957 66.3387 141.912 68.392C140.904 70.4453 139.392 72.0693 137.376 73.264C135.36 74.4213 132.933 75 130.096 75C126.251 75 123.227 74.16 121.024 72.48C118.859 70.7627 117.328 68.3547 116.432 65.256C115.573 62.1573 115.144 58.2933 115.144 53.664C115.144 40 119.96 33.168 129.592 33.168C133.325 33.168 136.256 34.176 138.384 36.192C140.549 38.208 141.819 40.6907 142.192 43.64H136.312ZM129.536 53.328C127.259 53.328 125.317 54.0187 123.712 55.4C122.144 56.744 121.36 58.704 121.36 61.28C121.36 63.856 122.088 65.9093 123.544 67.44C125.037 68.9333 127.109 69.68 129.76 69.68C132.112 69.68 133.96 68.952 135.304 67.496C136.685 66.04 137.376 64.0987 137.376 61.672C137.376 59.1333 136.704 57.1173 135.36 55.624C134.053 54.0933 132.112 53.328 129.536 53.328Z" fill="#CC5223"/>
<defs>
<linearGradient id="paint0_linear_385_1798" x1="80.9652" y1="23.3499" x2="22.5848" y2="27.1811" gradientUnits="userSpaceOnUse">
<stop stop-color="#FFD2C8"/>
<stop offset="1" stop-color="#D7447A"/>
</linearGradient>
<linearGradient id="paint1_linear_385_1798" x1="177.678" y1="23.3499" x2="236.059" y2="27.1811" gradientUnits="userSpaceOnUse">
<stop stop-color="#FFD2C8"/>
<stop offset="1" stop-color="#D7447A"/>
</linearGradient>
</defs>
</svg>
