<svg width="259" height="115" viewBox="0 0 259 115" fill="none" xmlns="http://www.w3.org/2000/svg">
<path d="M46.5597 110.06C46.6877 109.24 49.4757 105.34 62.6316 103.932C67.8956 103.368 75.0235 105.088 83.9994 109.092C80.2715 111.716 75.6235 113.492 70.0635 114.424C55.5756 116.852 47.4557 110.856 46.6317 110.124L46.5597 110.06ZM29.1679 82.7121C29.2078 82.4201 36.5278 79.7721 49.7077 86.3361C54.4837 88.7121 59.3756 93.068 64.3876 99.4C57.8516 100.32 51.9877 99.868 46.7957 98.06C35.8678 94.256 29.1079 83.1561 29.1679 82.7121ZM20.0479 54.3843C20.4399 54.1603 33.2838 56.2643 40.9078 64.9443C44.5317 69.0762 47.1477 74.3322 48.7477 80.7201C40.9878 78.4602 35.1078 75.5682 31.1078 72.0362C20.0799 62.3003 19.7999 54.5283 20.0559 54.3843H20.0479ZM26.1679 32.1285C26.5679 31.9725 36.8878 37.1205 42.9717 46.0484C45.8637 50.3044 47.2757 55.5883 47.1997 61.9163C40.3278 57.2763 35.7598 53.6643 33.4758 51.0764C25.1559 41.6484 25.9159 32.2285 26.1719 32.1285H26.1679ZM43.5717 11.0007C44.8237 11.2447 51.1277 19.5606 52.0117 29.8285C52.4317 34.7085 51.5397 39.5725 49.3317 44.4124C44.5157 37.5445 41.7718 31.2245 41.1038 25.4486C39.7598 13.8767 43.2997 10.9487 43.5677 11.0007H43.5717Z" fill="url(#paint0_linear_385_1743)"/>
<path d="M212.084 110.06C211.956 109.24 209.168 105.34 196.012 103.932C190.748 103.368 183.62 105.088 174.644 109.092C178.372 111.716 183.02 113.492 188.58 114.424C203.068 116.852 211.188 110.856 212.012 110.124L212.084 110.06ZM229.476 82.7121C229.436 82.4201 222.116 79.7721 208.936 86.3361C204.16 88.7121 199.268 93.068 194.256 99.4C200.792 100.32 206.656 99.868 211.848 98.06C222.776 94.256 229.536 83.1561 229.476 82.7121ZM238.596 54.3843C238.204 54.1603 225.36 56.2643 217.736 64.9443C214.112 69.0762 211.496 74.3322 209.896 80.7201C217.656 78.4602 223.536 75.5682 227.536 72.0362C238.564 62.3003 238.844 54.5283 238.588 54.3843H238.596ZM232.476 32.1285C232.076 31.9725 221.756 37.1205 215.672 46.0484C212.78 50.3044 211.368 55.5883 211.444 61.9163C218.316 57.2763 222.884 53.6643 225.168 51.0764C233.488 41.6484 232.728 32.2285 232.472 32.1285H232.476ZM215.072 11.0007C213.82 11.2447 207.516 19.5606 206.632 29.8285C206.212 34.7085 207.104 39.5725 209.312 44.4124C214.128 37.5445 216.872 31.2245 217.54 25.4486C218.884 13.8767 215.344 10.9487 215.076 11.0007H215.072Z" fill="url(#paint1_linear_385_1743)"/>
<rect x="74" width="110" height="110" rx="55" fill="#00C4F0" fill-opacity="0.2"/>
<rect x="74.9821" y="0.982143" width="108.036" height="108.036" rx="54.0179" stroke="#00C4F0" stroke-opacity="0.5" stroke-width="1.96429"/>
<path d="M115.248 44.256C115.472 40.784 116.797 38.0773 119.224 36.136C121.688 34.1947 124.824 33.224 128.632 33.224C131.245 33.224 133.504 33.6907 135.408 34.624C137.312 35.5573 138.749 36.8267 139.72 38.432C140.691 40.0373 141.176 41.848 141.176 43.864C141.176 46.1787 140.56 48.1573 139.328 49.8C138.096 51.4427 136.621 52.544 134.904 53.104V53.328C137.107 54 138.824 55.232 140.056 57.024C141.288 58.7787 141.904 61.0373 141.904 63.8C141.904 66.0027 141.4 67.9627 140.392 69.68C139.384 71.3973 137.891 72.76 135.912 73.768C133.933 74.7387 131.563 75.224 128.8 75.224C124.768 75.224 121.445 74.1973 118.832 72.144C116.256 70.0533 114.875 67.0667 114.688 63.184H120.848C120.997 65.1627 121.763 66.7867 123.144 68.056C124.525 69.288 126.392 69.904 128.744 69.904C131.021 69.904 132.776 69.288 134.008 68.056C135.24 66.7867 135.856 65.1627 135.856 63.184C135.856 60.5707 135.016 58.7227 133.336 57.64C131.693 56.52 129.155 55.96 125.72 55.96H124.264V50.696H125.776C128.8 50.6587 131.096 50.1547 132.664 49.184C134.269 48.2133 135.072 46.6827 135.072 44.592C135.072 42.8 134.493 41.3813 133.336 40.336C132.179 39.2533 130.536 38.712 128.408 38.712C126.317 38.712 124.693 39.2533 123.536 40.336C122.379 41.3813 121.688 42.688 121.464 44.256H115.248Z" fill="#00C4F0"/>
<defs>
<linearGradient id="paint0_linear_385_1743" x1="80.9652" y1="23.3499" x2="22.5848" y2="27.1811" gradientUnits="userSpaceOnUse">
<stop stop-color="#B2FFC2"/>
<stop offset="1" stop-color="#00C4F0"/>
</linearGradient>
<linearGradient id="paint1_linear_385_1743" x1="177.678" y1="23.3499" x2="236.059" y2="27.1811" gradientUnits="userSpaceOnUse">
<stop stop-color="#B2FFC2"/>
<stop offset="1" stop-color="#00C4F0"/>
</linearGradient>
</defs>
</svg>
