<svg width="259" height="115" viewBox="0 0 259 115" fill="none" xmlns="http://www.w3.org/2000/svg">
<path d="M46.5597 110.06C46.6877 109.24 49.4757 105.34 62.6316 103.932C67.8956 103.368 75.0235 105.088 83.9994 109.092C80.2715 111.716 75.6235 113.492 70.0635 114.424C55.5756 116.852 47.4557 110.856 46.6317 110.124L46.5597 110.06ZM29.1679 82.7121C29.2078 82.4201 36.5278 79.7721 49.7077 86.3361C54.4837 88.7121 59.3756 93.068 64.3876 99.4C57.8516 100.32 51.9877 99.868 46.7957 98.06C35.8678 94.256 29.1079 83.1561 29.1679 82.7121ZM20.0479 54.3843C20.4399 54.1603 33.2838 56.2643 40.9078 64.9443C44.5317 69.0762 47.1477 74.3322 48.7477 80.7201C40.9878 78.4602 35.1078 75.5682 31.1078 72.0362C20.0799 62.3003 19.7999 54.5283 20.0559 54.3843H20.0479ZM26.1679 32.1285C26.5679 31.9725 36.8878 37.1205 42.9717 46.0484C45.8637 50.3044 47.2757 55.5883 47.1997 61.9163C40.3278 57.2763 35.7598 53.6643 33.4758 51.0764C25.1559 41.6484 25.9159 32.2285 26.1719 32.1285H26.1679ZM43.5717 11.0007C44.8237 11.2447 51.1277 19.5606 52.0117 29.8285C52.4317 34.7085 51.5397 39.5725 49.3317 44.4124C44.5157 37.5445 41.7718 31.2245 41.1038 25.4486C39.7598 13.8767 43.2997 10.9487 43.5677 11.0007H43.5717Z" fill="url(#paint0_linear_385_1816)"/>
<path d="M212.084 110.06C211.956 109.24 209.168 105.34 196.012 103.932C190.748 103.368 183.62 105.088 174.644 109.092C178.372 111.716 183.02 113.492 188.58 114.424C203.068 116.852 211.188 110.856 212.012 110.124L212.084 110.06ZM229.476 82.7121C229.436 82.4201 222.116 79.7721 208.936 86.3361C204.16 88.7121 199.268 93.068 194.256 99.4C200.792 100.32 206.656 99.868 211.848 98.06C222.776 94.256 229.536 83.1561 229.476 82.7121ZM238.596 54.3843C238.204 54.1603 225.36 56.2643 217.736 64.9443C214.112 69.0762 211.496 74.3322 209.896 80.7201C217.656 78.4602 223.536 75.5682 227.536 72.0362C238.564 62.3003 238.844 54.5283 238.588 54.3843H238.596ZM232.476 32.1285C232.076 31.9725 221.756 37.1205 215.672 46.0484C212.78 50.3044 211.368 55.5883 211.444 61.9163C218.316 57.2763 222.884 53.6643 225.168 51.0764C233.488 41.6484 232.728 32.2285 232.472 32.1285H232.476ZM215.072 11.0007C213.82 11.2447 207.516 19.5606 206.632 29.8285C206.212 34.7085 207.104 39.5725 209.312 44.4124C214.128 37.5445 216.872 31.2245 217.54 25.4486C218.884 13.8767 215.344 10.9487 215.076 11.0007H215.072Z" fill="url(#paint1_linear_385_1816)"/>
<rect x="74.5" y="0.5" width="109" height="109" rx="54.5" fill="#FEECB5"/>
<rect x="74.5" y="0.5" width="109" height="109" rx="54.5" stroke="#DD7C00"/>
<path d="M121.248 53.664C117.365 51.7227 115.424 48.6613 115.424 44.48C115.424 42.464 115.928 40.616 116.936 38.936C117.944 37.256 119.456 35.9307 121.472 34.96C123.488 33.952 125.952 33.448 128.864 33.448C131.739 33.448 134.184 33.952 136.2 34.96C138.253 35.9307 139.784 37.256 140.792 38.936C141.8 40.616 142.304 42.464 142.304 44.48C142.304 46.5707 141.763 48.4187 140.68 50.024C139.635 51.592 138.235 52.8053 136.48 53.664C138.608 54.448 140.288 55.736 141.52 57.528C142.752 59.2827 143.368 61.3547 143.368 63.744C143.368 66.1707 142.752 68.3173 141.52 70.184C140.288 72.0507 138.571 73.488 136.368 74.496C134.165 75.504 131.664 76.008 128.864 76.008C126.064 76.008 123.563 75.504 121.36 74.496C119.195 73.488 117.496 72.0507 116.264 70.184C115.032 68.3173 114.416 66.1707 114.416 63.744C114.416 61.3173 115.032 59.2267 116.264 57.472C117.496 55.7173 119.157 54.448 121.248 53.664ZM136.2 45.264C136.2 43.1733 135.547 41.568 134.24 40.448C132.933 39.328 131.141 38.768 128.864 38.768C126.624 38.768 124.851 39.328 123.544 40.448C122.237 41.568 121.584 43.192 121.584 45.32C121.584 47.1867 122.256 48.7173 123.6 49.912C124.981 51.0693 126.736 51.648 128.864 51.648C130.992 51.648 132.747 51.0507 134.128 49.856C135.509 48.6613 136.2 47.1307 136.2 45.264ZM128.864 56.464C126.4 56.464 124.384 57.08 122.816 58.312C121.285 59.5067 120.52 61.2427 120.52 63.52C120.52 65.648 121.267 67.384 122.76 68.728C124.253 70.0347 126.288 70.688 128.864 70.688C131.403 70.688 133.4 70.016 134.856 68.672C136.349 67.328 137.096 65.6107 137.096 63.52C137.096 61.28 136.331 59.544 134.8 58.312C133.307 57.08 131.328 56.464 128.864 56.464Z" fill="#E08613"/>
<defs>
<linearGradient id="paint0_linear_385_1816" x1="80.9652" y1="23.3499" x2="22.5848" y2="27.1811" gradientUnits="userSpaceOnUse">
<stop stop-color="#FFFCD5"/>
<stop offset="1" stop-color="#FFAB2D"/>
</linearGradient>
<linearGradient id="paint1_linear_385_1816" x1="177.678" y1="23.3499" x2="236.059" y2="27.1811" gradientUnits="userSpaceOnUse">
<stop stop-color="#FFFCD5"/>
<stop offset="1" stop-color="#FFAB2D"/>
</linearGradient>
</defs>
</svg>
