<svg width="64" height="64" viewBox="0 0 64 64" fill="none" xmlns="http://www.w3.org/2000/svg">
<path d="M12.0768 37.1679C11.7563 37.1682 11.4432 37.0722 11.1779 36.8925C10.9126 36.7128 10.7073 36.4576 10.5888 36.1599C9.52958 33.5071 8.99518 30.7039 8.99518 27.8271C8.99518 15.4239 19.0848 5.33105 31.4912 5.33105C43.8976 5.33105 53.9872 15.4207 53.9872 27.8271C53.9872 30.4063 53.5552 32.9343 52.7008 35.3439C52.5586 35.7432 52.2638 36.0699 51.8811 36.2523C51.4984 36.4346 51.0589 36.4578 50.6592 36.3167C50.2596 36.1747 49.9327 35.88 49.7503 35.4972C49.5679 35.1144 49.5449 34.6748 49.6864 34.2751C50.4202 32.2046 50.7936 30.0237 50.7904 27.8271C50.7904 17.1871 42.1344 8.53105 31.4944 8.53105C20.8544 8.53105 12.1984 17.1871 12.1984 27.8271C12.1984 30.2975 12.6592 32.7007 13.5648 34.9727C13.661 35.2157 13.6964 35.4786 13.6679 35.7384C13.6394 35.9983 13.5478 36.2472 13.4011 36.4636C13.2544 36.68 13.0571 36.8573 12.8263 36.98C12.5955 37.1028 12.3382 37.1672 12.0768 37.1679Z" fill="#231815"/>
<path d="M38.7585 25.7247H33.0913V22.4479H38.7585C39.6417 22.4479 40.3585 21.7311 40.3585 20.8479C40.3585 19.9647 39.6417 19.2479 38.7585 19.2479H34.6977L37.8913 16.2911C38.0457 16.1483 38.1704 15.9765 38.2584 15.7855C38.3463 15.5945 38.3957 15.388 38.4037 15.1778C38.4117 14.9677 38.3782 14.758 38.3051 14.5608C38.232 14.3637 38.1208 14.1828 37.9777 14.0287C37.8349 13.8743 37.6631 13.7496 37.4721 13.6616C37.281 13.5737 37.0746 13.5243 36.8644 13.5163C36.6543 13.5083 36.4446 13.5418 36.2474 13.6149C36.0503 13.688 35.8694 13.7992 35.7153 13.9423L31.4529 17.8943L27.2801 13.9551C26.971 13.6644 26.5592 13.5082 26.135 13.5208C25.7108 13.5334 25.309 13.7137 25.0177 14.0223C24.727 14.3314 24.5707 14.7432 24.5833 15.1674C24.5959 15.5916 24.7763 15.9934 25.0849 16.2847L28.2305 19.2511H24.2305C23.3473 19.2511 22.6305 19.9679 22.6305 20.8511C22.6305 21.7343 23.3473 22.4511 24.2305 22.4511H29.8945V25.7279H24.2305C23.3473 25.7279 22.6305 26.4447 22.6305 27.3279C22.6305 28.2111 23.3473 28.9279 24.2305 28.9279H29.8945V31.4495C29.8945 32.3327 30.6113 33.0495 31.4945 33.0495C32.3777 33.0495 33.0945 32.3327 33.0945 31.4495V28.9279H38.7617C39.6449 28.9279 40.3617 28.2111 40.3617 27.3279C40.3617 26.4447 39.6417 25.7247 38.7585 25.7247Z" fill="#00A899"/>
<path d="M37.4944 58.8546C36.3936 58.8546 35.2864 58.669 34.2272 58.285L22.1792 53.9202L15.0112 57.661C14.2304 58.0706 13.2608 57.7666 12.8512 56.9826C12.7539 56.7962 12.6942 56.5925 12.6756 56.3831C12.657 56.1737 12.6798 55.9626 12.7428 55.762C12.8058 55.5614 12.9078 55.3752 13.0428 55.214C13.1778 55.0528 13.3432 54.9198 13.5296 54.8226L21.3216 50.7554C21.7184 50.5474 22.1856 50.5154 22.6048 50.669L35.3152 55.2706C37.4336 56.0386 39.8336 55.629 41.5808 54.2082L53.7408 44.301C54.0329 44.0339 54.2207 43.6716 54.2705 43.2789C54.3203 42.8862 54.229 42.4886 54.0128 42.157C53.5104 41.3922 52.48 41.1746 51.7152 41.6738L40.928 48.6626C40.3226 49.0559 39.6375 49.3101 38.9221 49.4069C38.2066 49.5038 37.4786 49.4408 36.7904 49.2226L29.8816 47.0402C29.216 46.829 28.7616 46.2114 28.7648 45.5138C28.768 44.8162 29.2192 44.1986 29.8848 43.9874L36.0032 42.0674C36.3896 41.9477 36.7201 41.6931 36.9345 41.3501C37.1489 41.007 37.2329 40.5984 37.1712 40.1986C37.0432 39.3634 36.3392 38.7586 35.4976 38.7586H21.7632C21.5712 38.7586 21.3792 38.8034 21.2096 38.8866L8.81603 44.9218C8.62721 45.014 8.42204 45.0681 8.21228 45.0809C8.00252 45.0936 7.79231 45.0648 7.5937 44.9962C7.3951 44.9275 7.21201 44.8203 7.05494 44.6806C6.89787 44.541 6.76992 44.3718 6.67843 44.1826C6.58618 43.9938 6.53212 43.7886 6.51936 43.5788C6.5066 43.3691 6.53539 43.1589 6.60407 42.9603C6.67275 42.7617 6.77997 42.5786 6.91958 42.4215C7.05919 42.2644 7.22845 42.1365 7.41763 42.045L19.8112 36.0098C20.416 35.7154 21.0944 35.5586 21.7664 35.5586H35.4976C37.936 35.5586 39.9712 37.309 40.336 39.7186C40.7008 42.1218 39.2832 44.3938 36.9632 45.1202L35.6896 45.5202L37.7632 46.1762C38.2464 46.3298 38.768 46.2594 39.1936 45.9842L49.9808 38.9954C52.2208 37.5426 55.232 38.1794 56.6944 40.4098C58.0128 42.4194 57.648 45.1362 55.8432 46.7266C55.8272 46.7394 55.8112 46.7522 55.7952 46.7682L43.6064 56.6978C41.8624 58.1122 39.6896 58.8546 37.4944 58.8546Z" fill="#231815"/>
</svg>
